<svg width="21" height="21" viewBox="0 0 21 21" fill="none" xmlns="http://www.w3.org/2000/svg">
<path d="M14.4633 3.6354C15.5955 3.69798 16.657 4.2055 17.4166 5.04736C18.1762 5.88921 18.5722 6.99716 18.5184 8.12975C18.5184 10.7757 16.2342 12.401 14.0422 14.3502C11.8785 16.2821 10.7132 17.3381 10.3359 17.5819C9.92506 17.3157 8.49011 16.0117 6.62966 14.3502C4.42813 12.3933 2.15339 10.7525 2.15339 8.12975C2.09961 6.99716 2.49567 5.88921 3.25524 5.04736C4.01481 4.2055 5.07633 3.69798 6.20847 3.6354C6.83564 3.61639 7.45701 3.76044 8.01183 4.05348C8.56665 4.34652 9.03594 4.7785 9.37382 5.30721C10.0973 6.31926 10.2179 6.82572 10.3385 6.82572C10.4591 6.82572 10.5779 6.31926 11.2946 5.30463C11.6305 4.77347 12.1 4.33977 12.656 4.04686C13.2121 3.75394 13.8353 3.61206 14.4633 3.6354ZM14.4633 1.91276C13.6812 1.88772 12.9035 2.03945 12.1881 2.35664C11.4728 2.67384 10.8382 3.14833 10.3316 3.74478C9.82547 3.15007 9.19218 2.67667 8.47852 2.35957C7.76486 2.04247 6.98907 1.88977 6.20847 1.91276C4.61923 1.97491 3.11925 2.66381 2.03654 3.82884C0.953831 4.99387 0.376485 6.54022 0.430753 8.12975C0.430753 11.2391 2.62711 13.1487 4.75026 14.9945C4.99402 15.2063 5.24035 15.4199 5.48497 15.6379L6.36954 16.4286C7.33425 17.3465 8.34563 18.2142 9.39966 19.028C9.67854 19.2086 10.0037 19.3047 10.3359 19.3047C10.6681 19.3047 10.9933 19.2086 11.2722 19.028C12.3597 18.1893 13.4022 17.2937 14.3953 16.345L15.1894 15.6353C15.4418 15.4113 15.6976 15.1883 15.9517 14.9686C17.962 13.2245 20.2411 11.2477 20.2411 8.12975C20.2953 6.54022 19.718 4.99387 18.6353 3.82884C17.5526 2.66381 16.0526 1.97491 14.4633 1.91276Z" fill="#262626"/>
</svg>
