<svg width="24" height="24" viewBox="0 0 24 24" fill="none" xmlns="http://www.w3.org/2000/svg">
<path d="M22.1162 10.3252C21.7215 12.5522 20.1591 14.209 18.3945 15.7871L17.5059 16.5664C17.2096 16.8225 16.9101 17.0841 16.6143 17.3467L16.6123 17.3477L15.6904 18.1719L15.6807 18.1807L15.6709 18.1904C15.5831 18.2743 15.4937 18.3563 15.4053 18.4395C15.4104 18.2757 15.4114 18.0856 15.4131 17.8662C15.5779 17.7223 15.6915 17.6272 15.7676 17.5654C15.8158 17.5438 15.8676 17.5212 15.8896 17.5078C15.9098 17.4945 15.9426 17.4704 15.9561 17.46C15.9994 17.4255 16.0304 17.3936 16.0342 17.3896C16.0618 17.361 16.0819 17.3346 16.084 17.332C16.0859 17.3296 16.0989 17.3125 16.1182 17.2852C16.1059 17.3031 16.0951 17.3185 16.0898 17.3252C16.1036 17.3083 16.1721 17.2254 16.376 16.999C16.5766 16.8198 16.7656 16.6445 16.9453 16.4727C17.0551 16.3934 17.1592 16.3287 17.2725 16.2607C17.6068 16.0603 18.0034 15.8291 18.5801 15.2637L18.6143 15.2305L18.6445 15.1934C19.0092 14.7372 20.1464 13.2136 21.0088 11.8613C21.2026 11.5574 21.3891 11.2475 21.5547 10.9531C21.7652 10.7221 21.9539 10.5102 22.1162 10.3252ZM19.1465 10.8828C18.9656 11.1988 18.7919 11.4928 18.625 11.7725C17.7902 12.6563 16.8538 13.641 15.9258 14.6035C14.7043 15.8705 13.5025 17.1002 12.5869 18.0273C12.6932 17.4645 12.8257 16.8478 12.9844 16.2422C13.2459 15.2441 13.5608 14.3353 13.9082 13.7383C14.0839 13.4364 14.231 13.2795 14.3262 13.2139C14.3671 13.1856 14.3822 13.1859 14.373 13.1875C14.3597 13.1898 14.3525 13.1857 14.3633 13.1895L14.626 12.4424L14.8848 11.7031C14.9027 11.7169 14.9257 11.7368 14.9502 11.7646C15.0016 11.8233 15.0607 11.9174 15.0859 12.0449C15.1113 12.1733 15.0928 12.2865 15.0645 12.3672C15.0174 12.5007 14.9463 12.5434 14.9941 12.5029C15.0268 12.4753 15.0933 12.4271 15.208 12.3623C15.6841 12.0934 16.5401 11.7678 17.5205 11.4297C18.0432 11.2494 18.6165 11.0589 19.1465 10.8828ZM21.998 7.35352C22.0163 7.42053 22.0328 7.48801 22.0488 7.55566C22.015 7.51777 21.9848 7.48203 21.9561 7.44922C21.9716 7.41843 21.9856 7.38672 21.998 7.35352ZM0.795898 9.19531C0.740153 7.55885 1.33474 5.96697 2.44922 4.76758C3.49423 3.64299 4.91664 2.94938 6.43848 2.81445L6.74316 2.79492C7.52836 2.77288 8.30846 2.92709 9.02637 3.24609C9.74639 3.56607 10.3858 4.04347 10.8965 4.64355L11.501 5.35352L12.1035 4.64355C12.6145 4.04183 13.255 3.5632 13.9766 3.24316C14.6966 2.92386 15.4794 2.76956 16.2666 2.79395V2.79492C17.7716 2.85383 19.1976 3.45989 20.2842 4.49023C20.1985 4.47184 20.1106 4.45542 20.0234 4.44531C19.8865 4.42946 19.6598 4.41429 19.4346 4.48145C19.3152 4.51709 19.1306 4.59549 18.9795 4.77344C18.8104 4.97273 18.7526 5.2149 18.7715 5.43359C18.7882 5.62698 18.8614 5.78224 18.9209 5.88379C18.9837 5.99089 19.0603 6.088 19.1377 6.17383C19.7623 6.86617 20.1341 7.74298 20.2051 8.66309L19.0312 9.0752L19.2324 9.18164C18.5767 9.40371 17.8121 9.65292 17.0039 9.93164C16.0438 10.2628 15.0508 10.632 14.4287 10.9834C14.269 11.0736 14.1084 11.1765 13.9707 11.293C13.8524 11.3931 13.6758 11.5646 13.5801 11.8135C13.5277 11.8426 13.4771 11.8752 13.4277 11.9092C13.0554 12.1658 12.7661 12.5514 12.5391 12.9414C12.0808 13.7289 11.7222 14.8067 11.4512 15.8408C11.1763 16.8897 10.976 17.9571 10.8525 18.7627C10.7946 19.1408 10.7531 19.468 10.7285 19.7139C10.7088 19.7441 10.6888 19.7759 10.6719 19.8115C10.4933 20.187 10.6714 20.5029 10.708 20.5645C10.8108 20.737 10.9531 20.8273 10.9912 20.8516C11.0626 20.897 11.1424 20.9339 11.2285 20.9639L11.5049 21.1426L11.6562 21.0439C11.7448 21.048 11.8369 21.0466 11.9307 21.0371C12.142 21.0157 12.3684 20.9569 12.6113 20.8564C12.4561 20.9798 12.2995 21.1014 12.1426 21.2227C11.951 21.3421 11.7309 21.4082 11.5049 21.4082C11.279 21.4082 11.0587 21.343 10.8672 21.2236C9.67777 20.3032 8.5358 19.323 7.44629 18.2861L7.43652 18.2773L7.42773 18.2695L6.40039 17.3516L6.39941 17.3506L5.53906 16.5967C3.02072 14.407 0.795898 12.4174 0.795898 9.22266V9.19531Z" fill="black" stroke="black" stroke-width="1.58453"/>
</svg>
